<svg width="19" height="20" viewBox="0 0 19 20" fill="none" xmlns="http://www.w3.org/2000/svg">
  <path d="M15.7143 9.28573C15.167 9.28573 14.6607 9.44823 14.2259 9.71608C14.1161 9.46251 13.8652 9.28573 13.5714 9.28573H0.714285C0.319634 9.28573 0 9.60536 0 10C0 13.9383 3.20457 17.1429 7.14285 17.1429C9.75633 17.1429 12.0402 15.7277 13.2848 13.6277C13.7875 14.4473 14.6839 15 15.7143 15C17.2901 15 18.5714 13.7187 18.5714 12.1428C18.5714 10.567 17.2901 9.28573 15.7143 9.28573ZM7.14285 15.7143C4.23382 15.7143 1.82583 13.5286 1.47314 10.7143H12.8123C12.4596 13.5285 10.0519 15.7143 7.14285 15.7143ZM15.7143 13.5714C14.9268 13.5714 14.2857 12.9304 14.2857 12.1429C14.2857 11.3554 14.9268 10.7143 15.7143 10.7143C16.5018 10.7143 17.1428 11.3554 17.1428 12.1429C17.1428 12.9304 16.5018 13.5714 15.7143 13.5714Z" fill="white"/>
  <path d="M4.17143 7.14285C4.17143 5.82322 4.7643 5.20534 5.51607 4.42331C6.33124 3.5733 7.25714 2.60903 7.25714 0.714285C7.25714 0.319634 6.93751 0 6.54285 0C6.1482 0 5.82857 0.319634 5.82857 0.714285C5.82857 2.03392 5.2357 2.65179 4.48393 3.43382C3.66876 4.28384 2.74286 5.24811 2.74286 7.14285C2.74286 7.5375 3.06249 7.85713 3.45714 7.85713C3.85179 7.85713 4.17143 7.5375 4.17143 7.14285Z" fill="white"/>
  <path d="M9.28569 5.41602C9.28569 4.52852 9.67586 4.12137 10.2151 3.55977C10.8071 2.94459 11.5428 2.17762 11.5428 0.714285C11.5428 0.319634 11.2232 0 10.8285 0C10.4339 0 10.1143 0.319634 10.1143 0.714285C10.1143 1.60267 9.72409 2.00893 9.1839 2.57143C8.59284 3.18749 7.85712 3.95357 7.85712 5.41599C7.85712 5.81064 8.17675 6.13028 8.5714 6.13028C8.96605 6.13028 9.28569 5.81156 9.28569 5.41602Z" fill="white"/>
  <path d="M13.5714 20C13.9661 20 14.2857 19.6803 14.2857 19.2857C14.2857 18.891 13.9661 18.5714 13.5714 18.5714H0.714285C0.319634 18.5714 0 18.891 0 19.2857C0 19.6803 0.319634 20 0.714285 20H13.5714Z" fill="white"/>
  </svg>
  