<svg width="27" height="19" viewBox="0 0 27 19" fill="none" xmlns="http://www.w3.org/2000/svg">
  <path d="M9.06253 18.7539H26.2813C26.5316 18.7539 26.7344 18.5512 26.7344 18.3008V14.2147C26.7344 12.4725 25.8078 10.916 24.3238 10.0799C24.8607 9.47838 25.1904 8.68767 25.1904 7.81993C25.1904 5.94398 23.6645 4.4191 21.7896 4.4191C21.4769 4.4191 21.1756 4.46441 20.8878 4.54371C20.4291 3.17981 19.1512 2.23392 17.6717 2.23392C17.3024 2.23392 16.949 2.29509 16.6148 2.40384C16.1855 1.0003 14.8794 0 13.3671 0C11.8549 0 10.5487 1.00027 10.1194 2.40384C9.78524 2.29509 9.43066 2.23392 9.0625 2.23392C7.53322 2.23392 6.22822 3.23871 5.8058 4.65362C5.42291 4.50409 5.00717 4.41799 4.57104 4.41799C2.69509 4.41799 1.17021 5.94389 1.17021 7.81882C1.17021 8.75793 1.5531 9.60981 2.17161 10.2261C0.83375 11.0961 0 12.5948 0 14.2147V18.3008C0 18.5512 0.202774 18.7539 0.453125 18.7539L9.06253 18.7539ZM7.82777 8.79534C8.22086 8.94941 8.63774 9.03663 9.06253 9.03663C9.36839 9.03663 9.66857 8.99132 9.962 8.90976C10.1319 9.41047 10.414 9.86131 10.781 10.2272C10.0322 10.7143 9.44316 11.3986 9.06821 12.1915C8.65586 11.3102 7.97845 10.5705 7.10619 10.0788C7.43244 9.71291 7.68277 9.27793 7.82777 8.79534ZM10.7096 7.49261C10.713 7.46768 10.7164 7.4439 10.721 7.41897C10.738 7.31702 10.7584 7.21733 10.7878 7.11876C10.7889 7.11423 10.7901 7.11083 10.7912 7.1063C10.8241 6.99755 10.8637 6.8922 10.9113 6.7891C10.9158 6.77891 10.9203 6.76871 10.926 6.75965C10.9713 6.66223 11.0234 6.5682 11.0812 6.47758C11.0835 6.47305 11.0869 6.46852 11.0891 6.46398C11.1503 6.36883 11.2183 6.2782 11.293 6.19211C11.2987 6.18531 11.3044 6.17852 11.3112 6.17285C11.3814 6.09355 11.4562 6.01879 11.5355 5.94855C11.5423 5.94176 11.5502 5.93496 11.557 5.92816C11.6431 5.85453 11.7337 5.78543 11.83 5.72312C11.8357 5.71973 11.8413 5.71633 11.8459 5.71293C11.941 5.65289 12.0407 5.59851 12.1438 5.55094C12.1483 5.54867 12.154 5.54641 12.1585 5.54414C12.4406 5.41727 12.7408 5.3459 13.0432 5.3289H13.05C13.4556 5.30851 13.8623 5.38555 14.2327 5.55773C14.2349 5.55887 14.2372 5.56 14.2395 5.56113C14.3301 5.60418 14.4185 5.65176 14.5034 5.705C14.5034 5.705 14.5046 5.70613 14.5057 5.70613C14.5918 5.76051 14.6745 5.81941 14.7526 5.88285C14.7617 5.89078 14.7719 5.89984 14.7776 5.90437C14.7787 5.90437 14.7787 5.90551 14.7798 5.90551C14.8501 5.96441 14.9169 6.02558 14.9792 6.09015C14.9951 6.10715 15.0109 6.12414 15.0268 6.14227C15.0744 6.19438 15.1185 6.24762 15.1616 6.30313C15.182 6.32918 15.2012 6.35524 15.2205 6.38242C15.259 6.43793 15.2953 6.49457 15.3292 6.55235C15.3428 6.57614 15.3587 6.59879 15.3723 6.62258C15.4153 6.70075 15.4538 6.78231 15.4878 6.865C15.5003 6.89559 15.5105 6.92731 15.5218 6.95903C15.5433 7.01793 15.5626 7.07684 15.5807 7.13688C15.5898 7.17086 15.5988 7.20598 15.6079 7.2411C15.6226 7.30453 15.6351 7.36797 15.6453 7.43254C15.6498 7.46313 15.6555 7.49371 15.6589 7.52543C15.6702 7.62172 15.677 7.71801 15.677 7.81656C15.677 7.90605 15.6713 7.99328 15.6623 8.08051V8.08164C15.5853 8.80099 15.2012 9.42742 14.645 9.83298C13.8294 10.4266 12.6954 10.4606 11.847 9.92021C11.2659 9.54979 10.849 8.94598 10.7266 8.24137V8.2391C10.7006 8.08731 10.6881 7.94797 10.6881 7.81657C10.6858 7.71009 10.6949 7.60136 10.7096 7.49261ZM19.3893 10.2272C18.6406 10.7143 18.0515 11.3986 17.6765 12.1915C17.2642 11.3102 16.5868 10.5705 15.7145 10.0788C16.0419 9.71177 16.2923 9.27677 16.4373 8.79418C16.8304 8.94825 17.2472 9.03547 17.672 9.03547C17.9779 9.03547 18.2781 8.99016 18.5704 8.9086C18.7414 9.41157 19.0223 9.86133 19.3893 10.2272ZM9.51571 14.2147C9.51571 12.7885 10.3132 11.4778 11.5672 10.813C11.693 10.881 11.8255 10.9388 11.9592 10.9909C11.9705 10.9954 11.9819 10.9999 11.9932 11.0033C12.3625 11.1415 12.7612 11.2208 13.1792 11.2208C13.6731 11.2208 14.1421 11.1121 14.5669 10.9218C14.5692 10.9207 14.5703 10.9195 14.5715 10.9195C14.6961 10.8629 14.815 10.7994 14.9306 10.7292C14.9408 10.7235 14.9521 10.719 14.9623 10.7133C16.3398 11.3386 17.2177 12.689 17.2177 14.2148V17.8476H9.51473L9.51571 14.2147ZM25.8282 14.2147V17.8475H18.1252V14.2147C18.1252 12.7885 18.9227 11.4778 20.1768 10.8139C20.3025 10.8819 20.435 10.9396 20.5687 10.9917C20.58 10.9963 20.5914 11.0008 20.6038 11.0042C20.9731 11.1424 21.3719 11.2217 21.7887 11.2217C22.2826 11.2217 22.7516 11.113 23.1753 10.9227C23.1787 10.9204 23.1821 10.9193 23.1866 10.917C23.309 10.8615 23.4268 10.798 23.5412 10.7289C23.5514 10.7221 23.5627 10.7187 23.5729 10.712C24.9504 11.3384 25.8282 12.6889 25.8282 14.2147ZM24.2842 7.81993C24.2842 8.64916 23.8764 9.38207 23.2522 9.83633C22.4366 10.4299 21.3015 10.4639 20.4519 9.92242C19.8719 9.55201 19.455 8.94933 19.3327 8.24472V8.24245C19.3066 8.08952 19.2942 7.95132 19.2942 7.81992C19.2942 7.70891 19.3032 7.60016 19.318 7.49254C19.3214 7.46762 19.3248 7.44383 19.3293 7.42004C19.3463 7.31809 19.3667 7.21727 19.3961 7.1187C19.3973 7.1153 19.3984 7.1119 19.3984 7.10737C19.4312 6.99862 19.472 6.89214 19.5185 6.78904C19.523 6.77998 19.5275 6.77091 19.5321 6.76185C19.5785 6.6633 19.6306 6.56814 19.6895 6.47638C19.6918 6.47298 19.694 6.46958 19.6963 6.46619C19.7586 6.37103 19.8266 6.27927 19.9014 6.19318C19.9059 6.18751 19.9115 6.18185 19.9172 6.17618C19.9874 6.09576 20.0645 6.01986 20.1449 5.94736C20.1517 5.94169 20.1574 5.93603 20.163 5.93037C20.2491 5.8556 20.342 5.7865 20.4383 5.72419C20.4428 5.72193 20.4474 5.71853 20.4519 5.71626C20.5471 5.65509 20.649 5.60071 20.7532 5.552C21.0693 5.407 21.4193 5.32318 21.7898 5.32318C23.165 5.32544 24.2842 6.44469 24.2842 7.81993ZM20.0531 4.89847C20.0418 4.90527 20.0304 4.91433 20.0191 4.92226C19.916 4.9857 19.8163 5.05366 19.7212 5.1273C19.7065 5.13862 19.6906 5.14995 19.6759 5.16128C19.5671 5.24851 19.4629 5.3414 19.3644 5.44109C19.3621 5.44335 19.3598 5.44675 19.3576 5.44902C19.2658 5.54304 19.1808 5.64386 19.1004 5.74806C19.0857 5.76732 19.071 5.78658 19.0574 5.80584C18.9849 5.90439 18.9158 6.00748 18.8535 6.11396C18.8467 6.12529 18.8399 6.13549 18.8342 6.14568C18.6994 6.38357 18.5929 6.63732 18.5182 6.9058C18.5102 6.93412 18.5034 6.96244 18.4955 6.9919C18.4695 7.09611 18.4479 7.20033 18.4321 7.30794C18.4264 7.34192 18.4207 7.37591 18.4162 7.40989C18.4004 7.5447 18.389 7.68063 18.389 7.81998C18.389 7.88568 18.3913 7.95365 18.3958 8.02162C17.8011 8.204 17.1429 8.15076 16.5811 7.87662V7.81998C16.5811 7.6931 16.5731 7.5685 16.5595 7.44614C16.555 7.40196 16.5459 7.35891 16.5391 7.31587C16.5278 7.23884 16.5154 7.1618 16.4984 7.08591C16.487 7.03153 16.4712 6.97942 16.4576 6.92618C16.4406 6.86388 16.4225 6.80157 16.4021 6.7404C16.3828 6.68263 16.3613 6.62599 16.3398 6.57048C16.3183 6.51724 16.2956 6.46399 16.2718 6.41188C16.2446 6.35298 16.2186 6.29521 16.188 6.23856C16.1631 6.19099 16.1347 6.14454 16.1075 6.09809C16.0747 6.04258 16.043 5.98594 16.0067 5.93157C15.9682 5.8738 15.9252 5.81942 15.8833 5.76391C15.8357 5.70274 15.7881 5.64157 15.736 5.5838C15.6782 5.51696 15.6182 5.45239 15.5547 5.39008C15.5287 5.36516 15.5004 5.34137 15.4743 5.31645C15.4063 5.25415 15.3361 5.19411 15.2625 5.13633C15.2534 5.12954 15.2443 5.12047 15.2353 5.11255C15.2387 5.09782 15.2409 5.08309 15.2443 5.06723C15.2715 4.94716 15.3066 4.82934 15.3508 4.71607C15.3633 4.68435 15.3803 4.65377 15.3939 4.62318C15.429 4.54388 15.4675 4.46685 15.5106 4.39209C15.5377 4.34564 15.5649 4.30033 15.5944 4.25615C15.6329 4.19724 15.6771 4.1406 15.7201 4.0851C15.7768 4.01486 15.8368 3.94689 15.9002 3.88232C15.9444 3.83701 15.9886 3.79283 16.0362 3.75092C16.086 3.70787 16.1381 3.66709 16.1914 3.62857C16.2344 3.59685 16.2786 3.5674 16.3239 3.53795C16.3794 3.50283 16.4338 3.46658 16.4927 3.43486C16.845 3.24681 17.2449 3.13694 17.6708 3.13694C18.7798 3.14034 19.7359 3.86308 20.0531 4.89847ZM13.3671 0.907488C14.5238 0.907488 15.5172 1.70499 15.7868 2.80609C15.1389 3.23657 14.645 3.88338 14.415 4.65371C14.3935 4.64465 14.3708 4.63898 14.3482 4.63105C14.2791 4.60613 14.21 4.58121 14.1375 4.55969C14.099 4.54836 14.0593 4.5393 14.0208 4.53023C13.9573 4.51437 13.8939 4.49738 13.8282 4.48492C13.7738 4.47359 13.7172 4.46793 13.6617 4.46C13.6107 4.4532 13.5597 4.44301 13.5088 4.43848C13.3989 4.42715 13.289 4.42148 13.178 4.42148C13.0375 4.42148 12.8993 4.43281 12.7634 4.4498C12.7271 4.45434 12.6909 4.46113 12.6546 4.46566C12.5436 4.48266 12.4349 4.50531 12.3272 4.53363C12.3102 4.53817 12.2933 4.5393 12.2763 4.54383C12.2751 4.54156 12.274 4.5393 12.274 4.53817C12.0293 3.81769 11.5558 3.21504 10.9441 2.80837C11.2171 1.70501 12.2105 0.907488 13.3671 0.907488ZM6.62349 5.11133C6.86477 3.97059 7.87185 3.14023 9.06244 3.14023C9.47593 3.14023 9.86673 3.24105 10.2122 3.42003C10.219 3.42456 10.2236 3.43023 10.2304 3.43362C10.3051 3.47327 10.3754 3.51859 10.4456 3.56503C10.4569 3.57183 10.4683 3.57862 10.4784 3.58542C10.5442 3.63187 10.6076 3.68171 10.6688 3.73382C10.688 3.74968 10.7073 3.76667 10.7254 3.78366C10.9055 3.94679 11.0607 4.13596 11.1864 4.34215C11.2068 4.37613 11.2295 4.41012 11.2487 4.44637C11.2782 4.49961 11.3043 4.55398 11.3292 4.60949C11.3598 4.67746 11.3869 4.74656 11.4119 4.81793C11.4209 4.84512 11.4323 4.8723 11.4413 4.89949C11.43 4.90629 11.4198 4.91535 11.4096 4.92215C11.3077 4.98559 11.208 5.05242 11.1128 5.12605C11.097 5.13851 11.0811 5.14984 11.0652 5.1623C10.9565 5.24953 10.8523 5.34129 10.7549 5.44098C10.7515 5.44437 10.7492 5.44777 10.7458 5.45117C10.6552 5.54406 10.5702 5.64375 10.4909 5.74796C10.4762 5.76721 10.4615 5.78761 10.4467 5.80686C10.3742 5.90542 10.3063 6.00737 10.244 6.11386C10.2372 6.12518 10.2304 6.13538 10.2236 6.14671C10.0888 6.38347 9.98341 6.63834 9.90752 6.90683C9.89959 6.93515 9.89279 6.9646 9.88486 6.99292C9.85881 7.09601 9.83729 7.20136 9.82143 7.30783C9.81576 7.34182 9.8101 7.3758 9.80557 7.40979C9.78971 7.54459 9.77838 7.68053 9.77838 7.81987C9.77838 7.88558 9.78065 7.95355 9.78518 8.02151C9.19044 8.20503 8.53229 8.15065 7.97041 7.87651V7.81987C7.97041 7.693 7.96249 7.56839 7.94889 7.44604C7.94436 7.40186 7.9353 7.35881 7.9285 7.31576C7.91717 7.23873 7.90471 7.1617 7.88772 7.0858C7.87639 7.03256 7.86053 6.97932 7.84694 6.92721C7.82995 6.86377 7.81182 6.80259 7.79143 6.74029C7.77217 6.68365 7.75178 6.62701 7.72913 6.57037C7.7076 6.51599 7.68495 6.46388 7.66116 6.41178C7.6351 6.354 7.60792 6.29623 7.57846 6.23959C7.55241 6.19088 7.52409 6.14443 7.4969 6.09685C7.46405 6.04134 7.43233 5.98584 7.39721 5.93259C7.35643 5.87256 7.31225 5.81592 7.26807 5.75814C7.22389 5.70037 7.17858 5.64373 7.12987 5.58822C7.07096 5.52025 7.00979 5.45342 6.94522 5.39111C6.9203 5.36619 6.89311 5.34353 6.86706 5.31974C6.79796 5.25631 6.72659 5.19513 6.65296 5.13849C6.64276 5.12943 6.63368 5.12039 6.62349 5.11133ZM2.07628 7.81987C2.07628 6.44463 3.19551 5.32541 4.57075 5.32541C5.05786 5.32541 5.51212 5.46814 5.89614 5.71056C6.07059 5.82044 6.22804 5.94958 6.36739 6.09344C6.38325 6.11044 6.39911 6.12856 6.41496 6.14668C6.46254 6.19766 6.50559 6.2509 6.54864 6.30641C6.56903 6.33247 6.58942 6.35852 6.60867 6.38571C6.64719 6.44008 6.68344 6.49672 6.71742 6.5545C6.73215 6.57829 6.74801 6.60207 6.7616 6.627C6.80465 6.70516 6.84317 6.78672 6.87715 6.86942C6.88961 6.90001 6.89981 6.93172 6.91114 6.96344C6.93266 7.02235 6.95305 7.08126 6.97004 7.14129C6.9791 7.17528 6.98817 7.2104 6.99723 7.24551C7.01195 7.30895 7.02442 7.37239 7.03461 7.43696C7.03914 7.46755 7.04481 7.49813 7.04821 7.52985C7.05954 7.62614 7.06633 7.72243 7.06633 7.82098C7.06633 7.91047 7.0618 7.9977 7.0516 8.08493C6.97571 8.8054 6.59056 9.43297 6.03321 9.83853C5.21759 10.431 4.08476 10.4638 3.23518 9.92463C2.53964 9.48058 2.07628 8.7046 2.07628 7.81987ZM0.906076 14.2147C0.906076 12.7884 1.70358 11.4778 2.95759 10.813C3.08334 10.8809 3.21474 10.9387 3.34956 10.9897C3.36089 10.9942 3.37335 10.9987 3.38467 11.0033C3.75396 11.1415 4.15271 11.2208 4.56959 11.2208C5.21075 11.2208 5.80887 11.0395 6.32093 10.7291C6.33112 10.7223 6.34245 10.7189 6.35265 10.7121C7.73015 11.3374 8.60806 12.6878 8.60806 14.2136V17.8464H0.905081L0.906076 14.2147Z" fill="white"/>
  </svg>
  