<svg width="21" height="22" viewBox="0 0 21 22" fill="none" xmlns="http://www.w3.org/2000/svg">
  <path d="M10.4453 0.125C15.1528 0.125176 18.9774 3.94967 18.9775 8.65723C18.9775 10.3679 18.4705 11.9605 17.6016 13.2969L20.6182 16.3115H20.6172C20.7415 16.4346 20.7917 16.6131 20.752 16.7822V16.7832C20.7159 16.9315 20.6144 17.0538 20.4785 17.1182L20.418 17.1426L17.4531 18.0908L16.5039 21.0557C16.451 21.2212 16.3146 21.3466 16.1455 21.3877C15.9764 21.429 15.7974 21.3794 15.6738 21.2559L11.5391 17.1182C11.1809 17.1643 10.8159 17.1914 10.4453 17.1914C10.0735 17.1914 9.70804 17.1643 9.34961 17.1182L5.21582 21.2559C5.09265 21.3788 4.91441 21.4299 4.74414 21.3887C4.57463 21.3475 4.43747 21.2216 4.38477 21.0547L3.43359 18.0908L0.472656 17.1426H0.47168C0.305734 17.0888 0.179856 16.9526 0.138672 16.7832V16.7822C0.0989082 16.6132 0.148275 16.4346 0.272461 16.3115L3.28711 13.2959C2.41892 11.9605 1.91309 10.367 1.91309 8.65723C1.9132 3.94959 5.73761 0.125 10.4453 0.125ZM1.55664 16.4395L3.9834 17.2188L4.0918 17.2676C4.1594 17.3086 4.2162 17.3655 4.25781 17.4326L4.30762 17.54V17.541L5.08594 19.9678L8.17383 16.8838C6.47354 16.4134 4.98552 15.43 3.8877 14.1104L1.55664 16.4395ZM17.001 14.1104C15.9032 15.4291 14.4164 16.4118 12.7168 16.8818L15.8027 19.9678L16.582 17.541V17.54C16.6318 17.3894 16.7508 17.2688 16.9033 17.2188L17.0664 17.165V17.168L19.3301 16.4424L17.001 14.1104ZM10.4443 1.12598C6.27954 1.12598 2.91026 4.49257 2.91016 8.65723C2.91016 10.2821 3.42719 11.7811 4.2998 13.0117C4.31469 13.027 4.32945 13.0422 4.3418 13.0596C5.51389 14.6816 7.28364 15.7715 9.25977 16.0879L9.2627 16.0889C9.29167 16.0941 9.31891 16.1022 9.34473 16.1113C9.70411 16.1639 10.0707 16.1924 10.4443 16.1924C10.8258 16.1924 11.1991 16.1628 11.5654 16.1084C11.5879 16.1014 11.6095 16.0944 11.6309 16.0908H11.6318C13.6071 15.7725 15.3767 14.6825 16.5469 13.0596C16.56 13.0412 16.5745 13.0253 16.5879 13.0107C17.4599 11.7807 17.9775 10.2813 17.9775 8.65723C17.9774 4.49288 14.6099 1.12615 10.4453 1.12598H10.4443ZM10.4375 4.58691L10.5137 4.5918C10.6879 4.61716 10.8401 4.7323 10.9072 4.90039L11.8125 7.15039L14.2334 7.31641H14.2324C14.4115 7.32738 14.5685 7.43401 14.6475 7.59082L14.6768 7.66016V7.66113C14.7392 7.85592 14.6772 8.07003 14.5195 8.2002L14.5186 8.19922L12.6572 9.75293L13.249 12.1055L13.2627 12.1807C13.2801 12.3557 13.2029 12.5289 13.0576 12.6338L13.0566 12.6328C12.9019 12.7457 12.6994 12.758 12.5332 12.6709H12.5283L12.4971 12.6523L10.4434 11.3652L8.38965 12.6523L8.38867 12.6514C8.21628 12.7605 7.99589 12.7554 7.83008 12.6357V12.6348C7.66399 12.5155 7.58821 12.3071 7.63672 12.1094L7.66016 12.0146H7.66113L8.23047 9.75391L6.36816 8.20117L6.31348 8.14746C6.19627 8.01612 6.15529 7.83166 6.21094 7.66016V7.65918C6.27497 7.46399 6.45217 7.32796 6.65723 7.31543L6.76465 7.30859L9.07617 7.15332L9.98047 4.9043L10.0098 4.8418C10.0877 4.70266 10.2294 4.60737 10.3916 4.58984H10.3945L10.4277 4.58691L10.4375 4.58594V4.58691ZM9.88477 7.81641C9.82234 7.97258 9.68723 8.08439 9.52637 8.11914L9.45605 8.12988L7.96289 8.23145L9.1123 9.18945L9.11328 9.19043C9.25266 9.30856 9.31573 9.49284 9.28027 9.6709V9.68066L9.27637 9.69629L8.91113 11.1475L10.1787 10.3516L10.2412 10.3184C10.3916 10.251 10.5682 10.2607 10.7109 10.3506L11.9756 11.1455L11.6133 9.69238C11.5672 9.50754 11.629 9.31381 11.7734 9.19043L11.9805 9.01465V9.01758L12.9219 8.23145L11.4326 8.13086H11.4316C11.2402 8.11709 11.073 7.994 11.002 7.81445V7.81348L10.4434 6.42871L9.88477 7.81641Z" fill="white" stroke="white" stroke-width="0.25"/>
  </svg>
  