<svg width="17" height="20" viewBox="0 0 17 20" fill="none" xmlns="http://www.w3.org/2000/svg">
  <path d="M8.0851 0.0011812H8.07494C6.6765 0.0011812 5.33434 0.559781 4.34534 1.54728C3.44144 2.44884 2.90002 3.64488 2.81018 4.90908C1.093 5.81924 0.00158125 7.60988 0.00078125 9.57088H0C0 10.9717 0.5586 12.3155 1.55078 13.3053C2.54296 14.2951 3.88898 14.8514 5.29218 14.8514C6.0578 14.8514 6.80858 14.6834 7.49618 14.3678V19.4124V19.4116C7.49618 19.7366 7.75946 19.9999 8.08446 19.9999C8.40946 19.9999 8.67274 19.7366 8.67274 19.4116V14.367C9.36102 14.6826 10.1126 14.8498 10.8781 14.8506C12.2805 14.8506 13.6257 14.2944 14.6179 13.3045C15.6101 12.3147 16.1679 10.9709 16.1679 9.5709H16.1687C16.1687 7.60996 15.0781 5.8185 13.3609 4.9085C13.2711 3.64366 12.7289 2.4475 11.825 1.5461C10.832 0.55548 9.48598 0 8.08358 0L8.0851 0.0011812ZM8.09213 1.17774C9.18119 1.17774 10.2249 1.61134 10.9953 2.38008C11.7672 3.14962 12.2 4.19336 12.2008 5.28168C12.2008 5.51372 12.3375 5.72464 12.55 5.81918C14.0375 6.47856 14.993 7.94658 14.993 9.56998C14.993 10.6583 14.5602 11.7012 13.7883 12.4708C13.0172 13.2403 11.9711 13.6731 10.8789 13.6731C10.0953 13.6731 9.33049 13.4473 8.67273 13.0294V11.0669L11.0993 9.3028L11.1001 9.30358C11.3626 9.11296 11.4212 8.74498 11.2298 8.4817C11.1384 8.35592 11.0001 8.27154 10.8462 8.24654C10.6923 8.22233 10.5345 8.26061 10.4087 8.35201L8.67354 9.61295V7.48395C8.67354 7.15973 8.41026 6.89645 8.08526 6.89645C7.76026 6.89645 7.49698 7.15973 7.49698 7.48395V9.61295L5.76182 8.35201C5.66182 8.27936 5.54072 8.23951 5.4165 8.23951C5.22822 8.23951 5.05088 8.32936 4.94072 8.48169C4.74931 8.74497 4.80791 9.11293 5.07041 9.30357L7.49701 11.0676V13.0301C6.83997 13.4481 6.07513 13.6723 5.29161 13.6739C4.20021 13.6739 3.15341 13.2419 2.38221 12.4716C1.61033 11.702 1.17753 10.6583 1.17675 9.56995C1.17675 7.94729 2.13379 6.48015 3.62135 5.82075C3.83463 5.72622 3.97135 5.51529 3.97135 5.28247C3.97135 4.19419 4.40495 3.15127 5.17603 2.38167C5.94791 1.61213 6.99399 1.17933 8.08543 1.17933V1.17855H8.09246L8.09213 1.17774Z" fill="white"/>
  </svg>
  