<svg width="28" height="28" viewBox="0 0 28 28" fill="none" xmlns="http://www.w3.org/2000/svg">
  <path d="M13.9989 4.76002C13.8271 4.76331 13.6521 4.82456 13.4826 4.93502L2.8426 13.335C2.56917 13.6063 2.37666 14.1903 2.65885 14.5513C2.94104 14.9122 3.53276 14.9603 3.87512 14.6563L13.9988 6.66761L24.1225 14.6563C24.4648 14.9603 25.0697 14.921 25.3387 14.5513C25.575 14.2264 25.517 13.6052 25.155 13.335L14.515 4.93502C14.34 4.81252 14.1706 4.75674 13.9989 4.76002ZM7.27887 12.9587L5.59887 14.2887V22.4C5.59887 22.8638 5.97401 23.24 6.43887 23.24H11.7589C12.2226 23.24 12.5989 22.8638 12.5989 22.4V19.04C12.5989 18.2503 13.2092 17.64 13.9989 17.64C14.7886 17.64 15.3989 18.2503 15.3989 19.04V22.4C15.3989 22.8638 15.774 23.24 16.2389 23.24H21.5589C22.0226 23.24 22.3989 22.8638 22.3989 22.4V14.2887L20.7189 12.9587V21.56H17.0789V19.04C17.0789 17.348 15.6909 15.96 13.9989 15.96C12.3068 15.96 10.9189 17.348 10.9189 19.04V21.56H7.27887V12.9587Z" fill="white"/>
  </svg>
  